<svg width="17" height="17" viewBox="0 0 17 17" fill="none" xmlns="http://www.w3.org/2000/svg">
<path d="M7.62771 0C3.42417 0 0 3.42416 0 7.62772C0 11.8312 3.42417 15.2621 7.62771 15.2621C9.42317 15.2621 11.0744 14.6329 12.3795 13.5882L15.5568 16.7637C15.7171 16.9174 15.9312 17.0022 16.1533 17C16.3754 16.9977 16.5878 16.9085 16.745 16.7516C16.9021 16.5947 16.9916 16.3824 16.9942 16.1604C16.9967 15.9383 16.9122 15.724 16.7588 15.5634L13.5815 12.3862C14.6271 11.0791 15.2571 9.42525 15.2571 7.62772C15.2571 3.42416 11.8313 0 7.62771 0ZM7.62771 1.69544C10.915 1.69544 13.56 4.34045 13.56 7.62772C13.56 10.915 10.915 13.5666 7.62771 13.5666C4.34044 13.5666 1.69541 10.915 1.69541 7.62772C1.69541 4.34045 4.34044 1.69544 7.62771 1.69544Z" fill="#443297"/>
</svg>
