<svg width="18" height="16" viewBox="0 0 18 16" fill="none" xmlns="http://www.w3.org/2000/svg">
<path d="M12.5405 0C15.1679 0 17.2973 2.16215 17.2973 5.18918C17.2973 11.2432 10.8108 14.7027 8.64867 16C6.48647 14.7027 0 11.2432 0 5.18918C0 2.16215 2.16216 0 4.75674 0C6.36538 0 7.78376 0.864862 8.64867 1.72972C9.51345 0.864862 10.9319 0 12.5405 0ZM9.45642 13.4953C10.2183 13.0145 10.9059 12.5362 11.5494 12.0242C14.1275 9.97449 15.5675 7.73445 15.5675 5.18918C15.5675 3.1481 14.2382 1.72972 12.5405 1.72972C11.6099 1.72972 10.6032 2.22269 9.87149 2.95264L8.64867 4.17556L7.4257 2.95264C6.69403 2.22269 5.68733 1.72972 4.75674 1.72972C3.07891 1.72972 1.72973 3.16194 1.72973 5.18918C1.72973 7.73536 3.17058 9.97449 5.74701 12.0242C6.39133 12.5362 7.0789 13.0145 7.84084 13.4945C8.0994 13.658 8.35545 13.8144 8.64867 13.9892C8.94179 13.8144 9.19784 13.658 9.45642 13.4953Z" fill="white"/>
</svg>
