<svg width="8" height="14" viewBox="0 0 8 14" fill="none" xmlns="http://www.w3.org/2000/svg">
<path d="M0.159463 7.38418L6.63488 13.8417C6.84704 14.0531 7.19053 14.0528 7.40233 13.8406C7.61397 13.6284 7.61343 13.2847 7.40124 13.0731L1.31126 6.99998L7.40146 0.926851C7.61362 0.715211 7.61417 0.371748 7.40255 0.159561C7.29638 0.0531941 7.15728 1.06459e-05 7.01818 1.06337e-05C6.87944 1.06216e-05 6.74089 0.0528386 6.63491 0.158467L0.159463 6.6158C0.0572798 6.71746 -6.00638e-05 6.85582 -6.00764e-05 6.99998C-6.0089e-05 7.14413 0.0574438 7.28233 0.159463 7.38418Z" fill="#112137"/>
</svg>
