<svg width="15" height="19" viewBox="0 0 15 19" fill="none" xmlns="http://www.w3.org/2000/svg">
<path d="M7.5 8.33333C8.32408 8.33333 9.12966 8.089 9.81491 7.63108C10.5001 7.17328 11.0342 6.52254 11.3495 5.76118C11.6648 4.99982 11.7474 4.16205 11.5866 3.35379C11.4258 2.54554 11.029 1.80311 10.4462 1.22039C9.86358 0.637673 9.12116 0.240832 8.31291 0.080065C7.50458 -0.08071 6.66683 0.00180669 5.9055 0.317165C5.14412 0.632532 4.49338 1.16659 4.03554 1.85179C3.5777 2.537 3.33333 3.34258 3.33333 4.16666C3.33466 5.27133 3.77406 6.33036 4.55518 7.11148C5.3363 7.89258 6.39533 8.332 7.5 8.33333ZM7.5 1.66666C7.99441 1.66666 8.47783 1.81329 8.88891 2.08799C9.30008 2.3627 9.62049 2.75314 9.80966 3.20996C9.99891 3.66677 10.0484 4.16944 9.95199 4.65439C9.85549 5.13935 9.61741 5.58481 9.26775 5.93443C8.91816 6.28406 8.47266 6.52216 7.98775 6.61863C7.50275 6.71509 7.00008 6.66558 6.54325 6.47636C6.0865 6.28715 5.69603 5.96671 5.42132 5.55559C5.14662 5.14447 5 4.66112 5 4.16666C5 3.50362 5.26339 2.86774 5.73223 2.3989C6.20108 1.93006 6.837 1.66666 7.5 1.66666ZM0 17.5V14.1667C0.001325 13.062 0.440733 12.003 1.22185 11.2218C2.00297 10.4407 3.06201 10.0013 4.16666 10H10.8333C11.938 10.0013 12.997 10.4407 13.7782 11.2218C14.5592 12.003 14.9987 13.062 15 14.1667V17.5C15 17.721 14.9122 17.933 14.7559 18.0892C14.5997 18.2455 14.3877 18.3333 14.1667 18.3333C13.9457 18.3333 13.7337 18.2455 13.5774 18.0892C13.4212 17.933 13.3333 17.721 13.3333 17.5V14.1667C13.3333 13.5037 13.0699 12.8677 12.6011 12.3989C12.1322 11.9301 11.4963 11.6667 10.8333 11.6667H4.16666C3.50362 11.6667 2.86774 11.9301 2.3989 12.3989C1.93006 12.8677 1.66667 13.5037 1.66667 14.1667V17.5C1.66667 17.721 1.57887 17.933 1.42259 18.0892C1.26631 18.2455 1.05435 18.3333 0.833333 18.3333C0.612316 18.3333 0.400358 18.2455 0.244075 18.0892C0.0878 17.933 0 17.721 0 17.5Z" fill="white"/>
</svg>
